<svg xmlns="http://www.w3.org/2000/svg" width="1270" height="760" viewBox="0 0 1270 760" role="img" aria-labelledby="title desc">
  <title id="title">Founder OS operating loop</title>
  <desc id="desc">A daily brief moves work through the queue and calendar into a weekly review, while the inbox feeds the next brief.</desc>
  <rect width="1270" height="760" fill="#102025"/>
  <circle cx="1090" cy="92" r="92" fill="#f15a35"/>
  <text x="70" y="72" fill="#d7f36b" font-family="Arial, Helvetica, sans-serif" font-size="20" font-weight="800" letter-spacing="4">DAILY → WEEKLY</text>
  <text x="70" y="150" fill="#fffdf7" font-family="Arial, Helvetica, sans-serif" font-size="60" font-weight="800" letter-spacing="-3">One decision today.</text>
  <text x="70" y="211" fill="#fffdf7" font-family="Georgia, serif" font-size="62" font-style="italic">A better review Friday.</text>
  <g fill="none" stroke="#60777b" stroke-width="4">
    <path d="M286 382 H394"/>
    <path d="M598 382 H746"/>
    <path d="M930 382 H1078"/>
    <path d="M1096 486 C1010 630 350 654 192 501"/>
    <path d="M195 560 V502"/>
  </g>
  <g fill="#d7f36b">
    <path d="M394 382 l-16 -10 v20 z"/>
    <path d="M746 382 l-16 -10 v20 z"/>
    <path d="M1078 382 l-16 -10 v20 z"/>
    <path d="M192 501 l3 19 16 -11 z"/>
    <path d="M195 502 l-10 16 h20 z"/>
  </g>
  <g font-family="Arial, Helvetica, sans-serif">
    <circle cx="174" cy="382" r="112" fill="#d7f36b"/>
    <text x="126" y="358" fill="#122127" font-size="17" font-weight="800">CHOOSE</text>
    <text x="103" y="398" fill="#122127" font-size="26" font-weight="800">daily brief</text>
    <text x="120" y="430" fill="#344045" font-size="17">one thing + trade</text>
    <circle cx="506" cy="382" r="92" fill="#fffaf0"/>
    <text x="469" y="367" fill="#ba351c" font-size="17" font-weight="800">COMMIT</text>
    <text x="450" y="407" fill="#122127" font-size="22" font-weight="800">queue + week</text>
    <circle cx="838" cy="382" r="92" fill="#f15a35"/>
    <text x="795" y="367" fill="#122127" font-size="17" font-weight="800">REVIEW</text>
    <text x="773" y="407" fill="#122127" font-size="26" font-weight="800">Friday truth</text>
    <circle cx="1170" cy="382" r="92" fill="#fffaf0"/>
    <text x="1147" y="367" fill="#ba351c" font-size="17" font-weight="800">NEXT</text>
    <text x="1113" y="407" fill="#122127" font-size="24" font-weight="800">next brief</text>
    <rect x="70" y="560" width="250" height="90" rx="18" fill="#1a3036" stroke="#385057" stroke-width="2"/>
    <text x="96" y="592" fill="#f15a35" font-size="15" font-weight="800" letter-spacing="2">CAPTURE ANYTIME</text>
    <text x="96" y="621" fill="#fffdf7" font-size="20" font-weight="800">inbox.md</text>
    <text x="192" y="621" fill="#aebcb8" font-size="16">feeds the next brief</text>
    <rect x="360" y="566" width="580" height="84" rx="18" fill="#1a3036" stroke="#385057" stroke-width="2"/>
    <text x="400" y="603" fill="#96aaa5" font-size="17" font-weight="800" letter-spacing="2">EVIDENCE RETURNS TO THE NEXT DECISION</text>
    <text x="400" y="630" fill="#fffdf7" font-size="19">done, dropped, rotting, pipeline movement, and the trade made</text>
  </g>
  <text x="70" y="712" fill="#aebcb8" font-family="Courier New, monospace" font-size="18">/daily-brief · inbox.md · /pipeline-review · /weekly-review</text>
</svg>
