<svg xmlns="http://www.w3.org/2000/svg" width="1270" height="760" viewBox="0 0 1270 760" role="img" aria-labelledby="title desc">
  <title id="title">Founder OS onboarding path</title>
  <desc id="desc">Four short question groups lead from an empty folder to a valid first daily brief.</desc>
  <rect width="1270" height="760" fill="#102025"/>
  <path d="M0 690 C250 610 420 760 690 674 C900 606 1080 620 1270 548 L1270 760 L0 760 Z" fill="#f15a35"/>
  <text x="70" y="72" fill="#d7f36b" font-family="Arial, Helvetica, sans-serif" font-size="20" font-weight="800" letter-spacing="4">ONE RESUMABLE FLOW</text>
  <text x="70" y="158" fill="#fffdf7" font-family="Arial, Helvetica, sans-serif" font-size="64" font-weight="800" letter-spacing="-3">From empty folder</text>
  <text x="70" y="222" fill="#fffdf7" font-family="Georgia, serif" font-size="68" font-style="italic">to first brief.</text>
  <rect x="810" y="82" width="380" height="96" rx="18" fill="#1a3036" stroke="#d7f36b" stroke-width="2"/>
  <text x="842" y="123" fill="#96aaa5" font-family="Arial, Helvetica, sans-serif" font-size="17">RUN ONCE · RESUME SAFELY</text>
  <text x="842" y="153" fill="#fffdf7" font-family="Courier New, monospace" font-size="22">/founder-os-init</text>
  <g font-family="Arial, Helvetica, sans-serif">
    <rect x="70" y="300" width="250" height="216" rx="24" fill="#fffaf0"/>
    <circle cx="112" cy="344" r="24" fill="#f15a35"/>
    <text x="104" y="353" fill="#fffdf7" font-size="23" font-weight="800">1</text>
    <text x="104" y="407" fill="#122127" font-size="30" font-weight="800">Business</text>
    <text x="104" y="447" fill="#4d5a5e" font-size="20">What exists?</text>
    <text x="104" y="477" fill="#4d5a5e" font-size="20">Where is north?</text>
    <rect x="350" y="300" width="250" height="216" rx="24" fill="#d7f36b"/>
    <circle cx="392" cy="344" r="24" fill="#122127"/>
    <text x="384" y="353" fill="#fffdf7" font-size="23" font-weight="800">2</text>
    <text x="384" y="407" fill="#122127" font-size="30" font-weight="800">Customer</text>
    <text x="384" y="447" fill="#344045" font-size="20">Who fits?</text>
    <text x="384" y="477" fill="#344045" font-size="20">Who does not?</text>
    <rect x="630" y="300" width="250" height="216" rx="24" fill="#fffaf0"/>
    <circle cx="672" cy="344" r="24" fill="#f15a35"/>
    <text x="664" y="353" fill="#fffdf7" font-size="23" font-weight="800">3</text>
    <text x="664" y="407" fill="#122127" font-size="30" font-weight="800">Quarter</text>
    <text x="664" y="447" fill="#4d5a5e" font-size="20">One result.</text>
    <text x="664" y="477" fill="#4d5a5e" font-size="20">One failure line.</text>
    <rect x="910" y="300" width="250" height="216" rx="24" fill="#d7f36b"/>
    <circle cx="952" cy="344" r="24" fill="#122127"/>
    <text x="944" y="353" fill="#fffdf7" font-size="23" font-weight="800">4</text>
    <text x="944" y="407" fill="#122127" font-size="30" font-weight="800">Money</text>
    <text x="944" y="447" fill="#344045" font-size="20">Cash and burn.</text>
    <text x="944" y="477" fill="#344045" font-size="18">Unknown stays unknown.</text>
  </g>
  <text x="70" y="588" fill="#fffdf7" font-family="Arial, Helvetica, sans-serif" font-size="22" font-weight="800">10-MINUTE MEDIAN TARGET · 15-MINUTE HARD STOP</text>
  <rect x="690" y="552" width="470" height="84" rx="18" fill="#fffaf0"/>
  <text x="720" y="586" fill="#ba351c" font-family="Arial, Helvetica, sans-serif" font-size="16" font-weight="800">ACTIVATION RECORD</text>
  <text x="720" y="616" fill="#122127" font-family="Courier New, monospace" font-size="20">reviews/daily/YYYY-MM-DD.md</text>
  <text x="70" y="715" fill="#122127" font-family="Arial, Helvetica, sans-serif" font-size="20" font-weight="800">PREFLIGHT → OWNER-SAFE WRITES → VALIDATION → DAILY BRIEF</text>
</svg>
