<svg xmlns="http://www.w3.org/2000/svg" width="1270" height="760" viewBox="0 0 1270 760" role="img" aria-labelledby="title desc">
  <title id="title">Founder OS operating loop</title>
  <desc id="desc">A daily brief moves work through the queue and calendar into a weekly evidence-based review.</desc>
  <rect width="1270" height="760" fill="#102025"/>
  <circle cx="1090" cy="92" r="92" fill="#f15a35"/>
  <text x="70" y="72" fill="#d7f36b" font-family="Arial, Helvetica, sans-serif" font-size="20" font-weight="800" letter-spacing="4">DAILY → WEEKLY</text>
  <text x="70" y="150" fill="#fffdf7" font-family="Arial, Helvetica, sans-serif" font-size="60" font-weight="800" letter-spacing="-3">One decision today.</text>
  <text x="70" y="211" fill="#fffdf7" font-family="Georgia, serif" font-size="62" font-style="italic">A better review Friday.</text>
  <g fill="none" stroke="#60777b" stroke-width="4">
    <path d="M252 382 H442"/>
    <path d="M584 382 H774"/>
    <path d="M916 382 H1106"/>
    <path d="M1096 486 C1010 630 350 654 192 501"/>
  </g>
  <g fill="#d7f36b">
    <path d="M442 382 l-16 -10 v20 z"/>
    <path d="M774 382 l-16 -10 v20 z"/>
    <path d="M1106 382 l-16 -10 v20 z"/>
    <path d="M192 501 l3 19 16 -11 z"/>
  </g>
  <g font-family="Arial, Helvetica, sans-serif">
    <circle cx="174" cy="382" r="92" fill="#fffaf0"/>
    <text x="132" y="367" fill="#ba351c" font-size="17" font-weight="800">CAPTURE</text>
    <text x="119" y="407" fill="#122127" font-size="26" font-weight="800">inbox.md</text>
    <circle cx="506" cy="382" r="112" fill="#d7f36b"/>
    <text x="458" y="358" fill="#122127" font-size="17" font-weight="800">CHOOSE</text>
    <text x="435" y="398" fill="#122127" font-size="26" font-weight="800">daily brief</text>
    <text x="452" y="430" fill="#344045" font-size="17">one thing + trade</text>
    <circle cx="838" cy="382" r="92" fill="#fffaf0"/>
    <text x="801" y="367" fill="#ba351c" font-size="17" font-weight="800">COMMIT</text>
    <text x="782" y="407" fill="#122127" font-size="22" font-weight="800">queue + week</text>
    <circle cx="1170" cy="382" r="92" fill="#f15a35"/>
    <text x="1127" y="367" fill="#122127" font-size="17" font-weight="800">REVIEW</text>
    <text x="1105" y="407" fill="#122127" font-size="26" font-weight="800">Friday truth</text>
    <rect x="330" y="566" width="610" height="84" rx="18" fill="#1a3036" stroke="#385057" stroke-width="2"/>
    <text x="370" y="603" fill="#96aaa5" font-size="17" font-weight="800" letter-spacing="2">EVIDENCE RETURNS TO THE NEXT DECISION</text>
    <text x="370" y="630" fill="#fffdf7" font-size="19">done, dropped, rotting, pipeline movement, and the trade made</text>
  </g>
  <text x="70" y="712" fill="#aebcb8" font-family="Courier New, monospace" font-size="18">/daily-brief · inbox.md · /pipeline-review · /weekly-review</text>
</svg>
